General
Complete name : The Magic Crystal 2011 BRRip x264 AAC-UNiQUE.mp4
Format : MPEG-4
Format profile : Base Media
Codec ID : isom
File size : 1.42 GiB
Duration : 1h 15mn
Overall bit rate mode : Variable
Overall bit rate : 2 670 Kbps
Encoded date : UTC 2012-09-30 09:25:27

Video
ID : 1
Format : AVC
Format/Info : Advanced Video Codec
Format profile : High@L4.1
Format settings, CABAC : Yes
Format settings, ReFrames : 3 frames
Codec ID : avc1
Codec ID/Info : Advanced Video Coding
Duration : 1h 15mn
Bit rate mode : Variable
Bit rate : 2 318 Kbps
Maximum bit rate : 40.0 Mbps
Width : 720 pixels
Height : 384 pixels
Display aspect ratio : 1.85:1
Frame rate mode : Constant
Frame rate : 23.976 fps
Color space : YUV
Chroma subsampling : 4:2:0
Bit depth : 8 bits
Scan type : Progressive
Bits/(Pixel*Frame) : 0.350
Stream size : 1.23 GiB (87%)
Writing library : x264 core 128 r2216 198a7ea

Audio
ID : 2
Format : AAC
Format/Info : Advanced Audio Codec
Format profile : LC
Codec ID : 40
Duration : 1h 15mn
Bit rate mode : Variable
Bit rate : 353 Kbps
Maximum bit rate : 405 Kbps
Channel(s) : 6 channels
Channel positions : Front: L C R, Side: L R, LFE
Sampling rate : 48.0 KHz
Compression mode : Lossy
Stream size : 189 MiB (13%)
Language : English
Encoded date : UTC 2012-09-30 09:25:57

Source : 1080p.BluRay.x264-MELiTE - Thanks!

Storyline
A magic crystal makes it possible for Santa to multiply his efforts to distribute presents to children and thus bring happiness to families all over the world. But Santa┬┤s evil twin brother Basil has a diabolic plan. He will steal the crystal and gain control over children┬┤s minds.

iMDB: http://www.imdb.com/title/tt0986361/
 
http://i.imgur.com/qO4Fp.png 
http://i.imgur.com/4bGfH.png 
http://i.imgur.com/tNuOb.png 
http://i.imgur.com/KzpPJ.png 
http://i.imgur.com/Hy40B.png 
http://i.imgur.com/b122c.png

Notes:
Imdb says finnish language, this has english track.

Enjoy another KICKASS UNiQUE RELEASE !!!!!!

Greets:
CM8, LEGiON, 26K, mSD, HS, DQ1, ADTRG, CRYS, TnT, MR.FiXiT, iLLUMiNATi, INSPiRAL.